<mxfile host="app.diagrams.net" modified="2021-06-18T11:48:01.642Z" agent="5.0 (X11; Linux x86_64) AppleWebKit/537.36 (KHTML, like Gecko) Chrome/91.0.4472.106 Safari/537.36" etag="T1kffR5BBlgbaf4jR1-a" version="14.8.0" type="github">
  <diagram id="gM6LWdryBIaIJu2o6Tqh" name="Page-1">
    <mxGraphModel dx="1373" dy="713" grid="1" gridSize="10" guides="1" tooltips="1" connect="1" arrows="1" fold="1" page="1" pageScale="1" pageWidth="827" pageHeight="1169" math="0" shadow="0">
      <root>
        <mxCell id="0" />
        <mxCell id="1" parent="0" />
        <mxCell id="kot2QHPUo4j3bU3xekO4-7" value="" style="curved=1;endArrow=none;html=1;entryX=0;entryY=0.5;entryDx=0;entryDy=0;exitX=0.5;exitY=0;exitDx=0;exitDy=0;startArrow=classic;startFill=1;endFill=0;" edge="1" parent="1" source="kot2QHPUo4j3bU3xekO4-11" target="kot2QHPUo4j3bU3xekO4-12">
          <mxGeometry width="50" height="50" relative="1" as="geometry">
            <mxPoint x="230" y="375" as="sourcePoint" />
            <mxPoint x="370" y="255" as="targetPoint" />
            <Array as="points">
              <mxPoint x="200" y="305" />
              <mxPoint x="290" y="185" />
            </Array>
          </mxGeometry>
        </mxCell>
        <mxCell id="kot2QHPUo4j3bU3xekO4-8" value="" style="curved=1;endArrow=classic;html=1;exitX=1;exitY=0;exitDx=0;exitDy=0;entryX=0;entryY=1;entryDx=0;entryDy=0;" edge="1" parent="1" source="kot2QHPUo4j3bU3xekO4-11" target="kot2QHPUo4j3bU3xekO4-12">
          <mxGeometry width="50" height="50" relative="1" as="geometry">
            <mxPoint x="240" y="395" as="sourcePoint" />
            <mxPoint x="400" y="275" as="targetPoint" />
            <Array as="points">
              <mxPoint x="260" y="375" />
              <mxPoint x="370" y="275" />
            </Array>
          </mxGeometry>
        </mxCell>
        <mxCell id="kot2QHPUo4j3bU3xekO4-9" value="" style="curved=1;endArrow=none;html=1;exitX=1;exitY=1;exitDx=0;exitDy=0;startArrow=classic;startFill=1;endFill=0;" edge="1" parent="1" source="kot2QHPUo4j3bU3xekO4-11">
          <mxGeometry width="50" height="50" relative="1" as="geometry">
            <mxPoint x="220" y="435" as="sourcePoint" />
            <mxPoint x="610" y="433" as="targetPoint" />
            <Array as="points">
              <mxPoint x="420" y="515" />
            </Array>
          </mxGeometry>
        </mxCell>
        <mxCell id="kot2QHPUo4j3bU3xekO4-10" value="" style="curved=1;endArrow=none;html=1;entryX=1;entryY=0.5;entryDx=0;entryDy=0;exitX=0.5;exitY=0;exitDx=0;exitDy=0;startArrow=classic;startFill=1;endFill=0;" edge="1" parent="1" source="kot2QHPUo4j3bU3xekO4-13" target="kot2QHPUo4j3bU3xekO4-12">
          <mxGeometry width="50" height="50" relative="1" as="geometry">
            <mxPoint x="620" y="365" as="sourcePoint" />
            <mxPoint x="480" y="245" as="targetPoint" />
            <Array as="points">
              <mxPoint x="620" y="195" />
            </Array>
          </mxGeometry>
        </mxCell>
        <mxCell id="kot2QHPUo4j3bU3xekO4-11" value="&lt;font style=&quot;font-size: 15px&quot;&gt;Rẽ phải&lt;/font&gt;" style="ellipse;whiteSpace=wrap;html=1;aspect=fixed;" vertex="1" parent="1">
          <mxGeometry x="160" y="365" width="80" height="80" as="geometry" />
        </mxCell>
        <mxCell id="kot2QHPUo4j3bU3xekO4-12" value="&lt;span style=&quot;font-size: 15px&quot;&gt;Đi thẳng&lt;/span&gt;" style="ellipse;whiteSpace=wrap;html=1;aspect=fixed;" vertex="1" parent="1">
          <mxGeometry x="380" y="125" width="80" height="80" as="geometry" />
        </mxCell>
        <mxCell id="kot2QHPUo4j3bU3xekO4-13" value="&lt;font style=&quot;font-size: 15px&quot;&gt;Rẽ trái&lt;/font&gt;" style="ellipse;whiteSpace=wrap;html=1;aspect=fixed;" vertex="1" parent="1">
          <mxGeometry x="600" y="365" width="80" height="80" as="geometry" />
        </mxCell>
        <mxCell id="kot2QHPUo4j3bU3xekO4-15" value="" style="curved=1;endArrow=classic;html=1;entryX=1;entryY=1;entryDx=0;entryDy=0;" edge="1" parent="1" target="kot2QHPUo4j3bU3xekO4-12">
          <mxGeometry width="50" height="50" relative="1" as="geometry">
            <mxPoint x="612" y="375" as="sourcePoint" />
            <mxPoint x="453.4357287525379" y="195.00427124746213" as="targetPoint" />
            <Array as="points">
              <mxPoint x="550" y="355" />
              <mxPoint x="470" y="265" />
            </Array>
          </mxGeometry>
        </mxCell>
        <mxCell id="kot2QHPUo4j3bU3xekO4-16" value="" style="curved=1;endArrow=classic;html=1;entryX=0;entryY=0.5;entryDx=0;entryDy=0;exitX=0.5;exitY=1;exitDx=0;exitDy=0;" edge="1" parent="1" target="kot2QHPUo4j3bU3xekO4-13">
          <mxGeometry width="50" height="50" relative="1" as="geometry">
            <mxPoint x="240" y="405" as="sourcePoint" />
            <mxPoint x="640" y="405" as="targetPoint" />
            <Array as="points">
              <mxPoint x="420" y="335" />
            </Array>
          </mxGeometry>
        </mxCell>
        <mxCell id="kot2QHPUo4j3bU3xekO4-17" value="d &amp;lt;=-50" style="text;html=1;strokeColor=none;fillColor=none;align=center;verticalAlign=middle;whiteSpace=wrap;rounded=0;" vertex="1" parent="1">
          <mxGeometry x="190" y="225" width="120" height="20" as="geometry" />
        </mxCell>
        <mxCell id="kot2QHPUo4j3bU3xekO4-18" value="d &amp;gt;= 50" style="text;html=1;strokeColor=none;fillColor=none;align=center;verticalAlign=middle;whiteSpace=wrap;rounded=0;" vertex="1" parent="1">
          <mxGeometry x="380" y="345" width="80" height="20" as="geometry" />
        </mxCell>
        <mxCell id="kot2QHPUo4j3bU3xekO4-19" value="-50 &amp;lt; d &amp;lt; 50" style="text;html=1;strokeColor=none;fillColor=none;align=center;verticalAlign=middle;whiteSpace=wrap;rounded=0;" vertex="1" parent="1">
          <mxGeometry x="270" y="285" width="120" height="20" as="geometry" />
        </mxCell>
        <mxCell id="kot2QHPUo4j3bU3xekO4-20" value="d &amp;gt;= 50" style="text;html=1;strokeColor=none;fillColor=none;align=center;verticalAlign=middle;whiteSpace=wrap;rounded=0;" vertex="1" parent="1">
          <mxGeometry x="560" y="225" width="80" height="20" as="geometry" />
        </mxCell>
        <mxCell id="kot2QHPUo4j3bU3xekO4-23" value="-50 &amp;lt; d &amp;lt; 50" style="text;html=1;strokeColor=none;fillColor=none;align=center;verticalAlign=middle;whiteSpace=wrap;rounded=0;" vertex="1" parent="1">
          <mxGeometry x="440" y="285" width="120" height="20" as="geometry" />
        </mxCell>
        <mxCell id="kot2QHPUo4j3bU3xekO4-24" value="d &amp;lt;=-50" style="text;html=1;strokeColor=none;fillColor=none;align=center;verticalAlign=middle;whiteSpace=wrap;rounded=0;" vertex="1" parent="1">
          <mxGeometry x="360" y="455" width="120" height="20" as="geometry" />
        </mxCell>
        <mxCell id="kot2QHPUo4j3bU3xekO4-40" value="" style="curved=1;endArrow=none;html=1;entryX=0;entryY=0.5;entryDx=0;entryDy=0;exitX=0.5;exitY=0;exitDx=0;exitDy=0;startArrow=classic;startFill=1;endFill=0;" edge="1" parent="1" source="kot2QHPUo4j3bU3xekO4-44" target="kot2QHPUo4j3bU3xekO4-45">
          <mxGeometry width="50" height="50" relative="1" as="geometry">
            <mxPoint x="230" y="885" as="sourcePoint" />
            <mxPoint x="370" y="765" as="targetPoint" />
            <Array as="points">
              <mxPoint x="200" y="815" />
              <mxPoint x="290" y="695" />
            </Array>
          </mxGeometry>
        </mxCell>
        <mxCell id="kot2QHPUo4j3bU3xekO4-41" value="" style="curved=1;endArrow=classic;html=1;exitX=1;exitY=0;exitDx=0;exitDy=0;entryX=0;entryY=1;entryDx=0;entryDy=0;" edge="1" parent="1" source="kot2QHPUo4j3bU3xekO4-44" target="kot2QHPUo4j3bU3xekO4-45">
          <mxGeometry width="50" height="50" relative="1" as="geometry">
            <mxPoint x="240" y="905" as="sourcePoint" />
            <mxPoint x="400" y="785" as="targetPoint" />
            <Array as="points">
              <mxPoint x="260" y="885" />
              <mxPoint x="370" y="785" />
            </Array>
          </mxGeometry>
        </mxCell>
        <mxCell id="kot2QHPUo4j3bU3xekO4-42" value="" style="curved=1;endArrow=none;html=1;exitX=1;exitY=1;exitDx=0;exitDy=0;startArrow=classic;startFill=1;endFill=0;" edge="1" parent="1" source="kot2QHPUo4j3bU3xekO4-44">
          <mxGeometry width="50" height="50" relative="1" as="geometry">
            <mxPoint x="220" y="945" as="sourcePoint" />
            <mxPoint x="610" y="943" as="targetPoint" />
            <Array as="points">
              <mxPoint x="420" y="1025" />
            </Array>
          </mxGeometry>
        </mxCell>
        <mxCell id="kot2QHPUo4j3bU3xekO4-43" value="" style="curved=1;endArrow=none;html=1;entryX=1;entryY=0.5;entryDx=0;entryDy=0;exitX=0.5;exitY=0;exitDx=0;exitDy=0;startArrow=classic;startFill=1;endFill=0;" edge="1" parent="1" source="kot2QHPUo4j3bU3xekO4-46" target="kot2QHPUo4j3bU3xekO4-45">
          <mxGeometry width="50" height="50" relative="1" as="geometry">
            <mxPoint x="620" y="875" as="sourcePoint" />
            <mxPoint x="480" y="755" as="targetPoint" />
            <Array as="points">
              <mxPoint x="620" y="705" />
            </Array>
          </mxGeometry>
        </mxCell>
        <mxCell id="kot2QHPUo4j3bU3xekO4-44" value="&lt;font style=&quot;font-size: 15px&quot;&gt;Rẽ phải&lt;/font&gt;" style="ellipse;whiteSpace=wrap;html=1;aspect=fixed;" vertex="1" parent="1">
          <mxGeometry x="160" y="875" width="80" height="80" as="geometry" />
        </mxCell>
        <mxCell id="kot2QHPUo4j3bU3xekO4-45" value="&lt;span style=&quot;font-size: 15px&quot;&gt;Đi thẳng&lt;/span&gt;" style="ellipse;whiteSpace=wrap;html=1;aspect=fixed;" vertex="1" parent="1">
          <mxGeometry x="380" y="635" width="80" height="80" as="geometry" />
        </mxCell>
        <mxCell id="kot2QHPUo4j3bU3xekO4-46" value="&lt;font style=&quot;font-size: 15px&quot;&gt;Rẽ trái&lt;/font&gt;" style="ellipse;whiteSpace=wrap;html=1;aspect=fixed;" vertex="1" parent="1">
          <mxGeometry x="600" y="875" width="80" height="80" as="geometry" />
        </mxCell>
        <mxCell id="kot2QHPUo4j3bU3xekO4-47" value="" style="curved=1;endArrow=classic;html=1;entryX=1;entryY=1;entryDx=0;entryDy=0;" edge="1" parent="1" target="kot2QHPUo4j3bU3xekO4-45">
          <mxGeometry width="50" height="50" relative="1" as="geometry">
            <mxPoint x="612" y="885" as="sourcePoint" />
            <mxPoint x="453.4357287525379" y="705.0042712474622" as="targetPoint" />
            <Array as="points">
              <mxPoint x="550" y="865" />
              <mxPoint x="470" y="775" />
            </Array>
          </mxGeometry>
        </mxCell>
        <mxCell id="kot2QHPUo4j3bU3xekO4-48" value="" style="curved=1;endArrow=classic;html=1;entryX=0;entryY=0.5;entryDx=0;entryDy=0;exitX=0.5;exitY=1;exitDx=0;exitDy=0;" edge="1" parent="1" target="kot2QHPUo4j3bU3xekO4-46">
          <mxGeometry width="50" height="50" relative="1" as="geometry">
            <mxPoint x="240" y="915" as="sourcePoint" />
            <mxPoint x="640" y="915" as="targetPoint" />
            <Array as="points">
              <mxPoint x="420" y="845" />
            </Array>
          </mxGeometry>
        </mxCell>
        <mxCell id="kot2QHPUo4j3bU3xekO4-49" value="g &amp;lt;= 85" style="text;html=1;strokeColor=none;fillColor=none;align=center;verticalAlign=middle;whiteSpace=wrap;rounded=0;" vertex="1" parent="1">
          <mxGeometry x="190" y="735" width="120" height="20" as="geometry" />
        </mxCell>
        <mxCell id="kot2QHPUo4j3bU3xekO4-50" value="g &amp;gt;= 95" style="text;html=1;strokeColor=none;fillColor=none;align=center;verticalAlign=middle;whiteSpace=wrap;rounded=0;" vertex="1" parent="1">
          <mxGeometry x="380" y="855" width="80" height="20" as="geometry" />
        </mxCell>
        <mxCell id="kot2QHPUo4j3bU3xekO4-51" value="85 &amp;lt; g &amp;lt; 95" style="text;html=1;strokeColor=none;fillColor=none;align=center;verticalAlign=middle;whiteSpace=wrap;rounded=0;" vertex="1" parent="1">
          <mxGeometry x="270" y="795" width="120" height="20" as="geometry" />
        </mxCell>
        <mxCell id="kot2QHPUo4j3bU3xekO4-52" value="g &amp;gt;= 95" style="text;html=1;strokeColor=none;fillColor=none;align=center;verticalAlign=middle;whiteSpace=wrap;rounded=0;" vertex="1" parent="1">
          <mxGeometry x="560" y="735" width="80" height="20" as="geometry" />
        </mxCell>
        <mxCell id="kot2QHPUo4j3bU3xekO4-53" value="85 &amp;lt; g &amp;lt; 95" style="text;html=1;strokeColor=none;fillColor=none;align=center;verticalAlign=middle;whiteSpace=wrap;rounded=0;" vertex="1" parent="1">
          <mxGeometry x="440" y="795" width="120" height="20" as="geometry" />
        </mxCell>
        <mxCell id="kot2QHPUo4j3bU3xekO4-54" value="g &amp;lt;= 85" style="text;html=1;strokeColor=none;fillColor=none;align=center;verticalAlign=middle;whiteSpace=wrap;rounded=0;" vertex="1" parent="1">
          <mxGeometry x="360" y="965" width="120" height="20" as="geometry" />
        </mxCell>
        <mxCell id="kot2QHPUo4j3bU3xekO4-56" value="" style="curved=1;endArrow=classic;html=1;entryX=1;entryY=0.5;entryDx=0;entryDy=0;exitX=1;exitY=1;exitDx=0;exitDy=0;" edge="1" parent="1" source="kot2QHPUo4j3bU3xekO4-13" target="kot2QHPUo4j3bU3xekO4-13">
          <mxGeometry width="50" height="50" relative="1" as="geometry">
            <mxPoint x="640" y="450" as="sourcePoint" />
            <mxPoint x="700" y="400" as="targetPoint" />
            <Array as="points">
              <mxPoint x="720" y="490" />
              <mxPoint x="760" y="400" />
            </Array>
          </mxGeometry>
        </mxCell>
        <mxCell id="kot2QHPUo4j3bU3xekO4-57" value="" style="curved=1;endArrow=classic;html=1;entryX=0;entryY=0;entryDx=0;entryDy=0;exitX=1;exitY=0;exitDx=0;exitDy=0;" edge="1" parent="1" source="kot2QHPUo4j3bU3xekO4-12" target="kot2QHPUo4j3bU3xekO4-12">
          <mxGeometry width="50" height="50" relative="1" as="geometry">
            <mxPoint x="480.00427124746216" y="123.28427124746213" as="sourcePoint" />
            <mxPoint x="491.72" y="95" as="targetPoint" />
            <Array as="points">
              <mxPoint x="480" y="70" />
              <mxPoint x="370" y="70" />
            </Array>
          </mxGeometry>
        </mxCell>
        <mxCell id="kot2QHPUo4j3bU3xekO4-58" value="" style="curved=1;endArrow=classic;html=1;entryX=0;entryY=1;entryDx=0;entryDy=0;exitX=-0.025;exitY=0.425;exitDx=0;exitDy=0;exitPerimeter=0;" edge="1" parent="1" source="kot2QHPUo4j3bU3xekO4-11" target="kot2QHPUo4j3bU3xekO4-11">
          <mxGeometry width="50" height="50" relative="1" as="geometry">
            <mxPoint x="80" y="390" as="sourcePoint" />
            <mxPoint x="81.72000000000003" y="425" as="targetPoint" />
            <Array as="points">
              <mxPoint x="80" y="420" />
              <mxPoint x="130" y="490" />
            </Array>
          </mxGeometry>
        </mxCell>
        <mxCell id="kot2QHPUo4j3bU3xekO4-59" value="" style="curved=1;endArrow=classic;html=1;entryX=0;entryY=0;entryDx=0;entryDy=0;exitX=1;exitY=0;exitDx=0;exitDy=0;" edge="1" parent="1" source="kot2QHPUo4j3bU3xekO4-45" target="kot2QHPUo4j3bU3xekO4-45">
          <mxGeometry width="50" height="50" relative="1" as="geometry">
            <mxPoint x="460.00427124746216" y="643.2842712474621" as="sourcePoint" />
            <mxPoint x="471.72" y="615" as="targetPoint" />
            <Array as="points">
              <mxPoint x="480" y="580" />
              <mxPoint x="370" y="580" />
            </Array>
          </mxGeometry>
        </mxCell>
        <mxCell id="kot2QHPUo4j3bU3xekO4-60" value="" style="curved=1;endArrow=classic;html=1;exitX=1;exitY=1;exitDx=0;exitDy=0;" edge="1" parent="1" source="kot2QHPUo4j3bU3xekO4-46">
          <mxGeometry width="50" height="50" relative="1" as="geometry">
            <mxPoint x="670.0042712474622" y="948.2842712474621" as="sourcePoint" />
            <mxPoint x="682" y="915" as="targetPoint" />
            <Array as="points">
              <mxPoint x="720" y="1005" />
              <mxPoint x="760" y="905" />
            </Array>
          </mxGeometry>
        </mxCell>
        <mxCell id="kot2QHPUo4j3bU3xekO4-61" value="" style="curved=1;endArrow=classic;html=1;exitX=0;exitY=0.5;exitDx=0;exitDy=0;" edge="1" parent="1" source="kot2QHPUo4j3bU3xekO4-44">
          <mxGeometry width="50" height="50" relative="1" as="geometry">
            <mxPoint x="90.00427124746216" y="938.2842712474621" as="sourcePoint" />
            <mxPoint x="172" y="945" as="targetPoint" />
            <Array as="points">
              <mxPoint x="80" y="925" />
              <mxPoint x="130" y="1005" />
            </Array>
          </mxGeometry>
        </mxCell>
        <mxCell id="kot2QHPUo4j3bU3xekO4-62" value="d &amp;gt;= 50" style="text;html=1;strokeColor=none;fillColor=none;align=center;verticalAlign=middle;whiteSpace=wrap;rounded=0;" vertex="1" parent="1">
          <mxGeometry x="670" y="470" width="80" height="20" as="geometry" />
        </mxCell>
        <mxCell id="kot2QHPUo4j3bU3xekO4-63" value="-50 &amp;lt; d &amp;lt; 50" style="text;html=1;strokeColor=none;fillColor=none;align=center;verticalAlign=middle;whiteSpace=wrap;rounded=0;" vertex="1" parent="1">
          <mxGeometry x="370" y="40" width="120" height="20" as="geometry" />
        </mxCell>
        <mxCell id="kot2QHPUo4j3bU3xekO4-64" value="d &amp;lt;=-50" style="text;html=1;strokeColor=none;fillColor=none;align=center;verticalAlign=middle;whiteSpace=wrap;rounded=0;" vertex="1" parent="1">
          <mxGeometry x="40" y="470" width="120" height="20" as="geometry" />
        </mxCell>
        <mxCell id="kot2QHPUo4j3bU3xekO4-65" value="85 &amp;lt; g &amp;lt; 95" style="text;html=1;strokeColor=none;fillColor=none;align=center;verticalAlign=middle;whiteSpace=wrap;rounded=0;" vertex="1" parent="1">
          <mxGeometry x="370" y="550" width="120" height="20" as="geometry" />
        </mxCell>
        <mxCell id="kot2QHPUo4j3bU3xekO4-66" value="g &amp;gt;= 95" style="text;html=1;strokeColor=none;fillColor=none;align=center;verticalAlign=middle;whiteSpace=wrap;rounded=0;" vertex="1" parent="1">
          <mxGeometry x="670" y="980" width="80" height="20" as="geometry" />
        </mxCell>
        <mxCell id="kot2QHPUo4j3bU3xekO4-67" value="g &amp;lt;= 85" style="text;html=1;strokeColor=none;fillColor=none;align=center;verticalAlign=middle;whiteSpace=wrap;rounded=0;" vertex="1" parent="1">
          <mxGeometry x="40" y="985" width="120" height="20" as="geometry" />
        </mxCell>
      </root>
    </mxGraphModel>
  </diagram>
</mxfile>
